# xmcd CD database file
#
# Track frame offsets:
#	150
#	16520
#	34369
#	50796
#	65853
#	83135
#	97468
#	114245
#	134219
#	152700
#
# Disc length: 2322 seconds
#
# Revision: 0
# Processed by: cddbd v1.5.2PL0 Copyright (c) Steve Scherf et al.
# Submitted via: CDex 1.51
#
DISCID=9009100a
DTITLE=Mamzelle Bip - Et Franck Perrolle
DYEAR=2008
DGENRE=Jazz
TTITLE0=A little faible
TTITLE1=Mare de Saunguinaire
TTITLE2=Même si mon coeur
TTITLE3=Je t'aime un million de x
TTITLE4=A prendre ou ? Allée C
TTITLE5=Un truc que j'connais pas
TTITLE6=Je m'en fous de ce que tu penses
TTITLE7=M'aimer moi m'aime
TTITLE8=Oh Melanie !
TTITLE9=Partir ailleurs
EXTD=YEAR: 2008
EXTT0=
EXTT1=
EXTT2=
EXTT3=
EXTT4=
EXTT5=
EXTT6=
EXTT7=
EXTT8=
EXTT9=
PLAYORDER=
